<svg xmlns="http://www.w3.org/2000/svg"
     viewBox="0 0 128 128"
     width="32"
     height="32">

    <style type="text/css">
        .document { fill:#333; }
    </style>

    <g class="document">
        <g class="icon-color">
            <rect x="57.44"
                  y="57.76"
                  width="13.14"
                  height="12.66"
                  transform="translate(-17.04 23.65) rotate(-18.52)"/>
            <rect x="57.44"
                  y="57.76"
                  width="13.14"
                  height="12.66"
                  transform="translate(-17.04 23.65) rotate(-18.52)"/>
            <path d="M106.77,51.16C97.12,19.09,83.27,11.47,51.2,21.27S11.51,44.77,21.31,76.84s23.5,39.69,55.57,29.93S116.37,83.35,106.77,51.16ZM90.57,72l-6,2,2.06,6.23a4.88,4.88,0,0,1-3,6.15,4.3,4.3,0,0,1-1.63.2,5,5,0,0,1-4.48-3.25l-2-6.27L63,81.05l2.1,6.27a4.84,4.84,0,0,1-3,6.11,3.94,3.94,0,0,1-1.63.2,4.93,4.93,0,0,1-4.49-3.26l-2.1-6.27-6.15,2.23a4.5,4.5,0,0,1-1.63.19,5,5,0,0,1-4.44-3.17,4.87,4.87,0,0,1,3-6.15l6-2-4-11.9-6,2a4.84,4.84,0,1,1-3.09-9.17l6.11-2.22-2.18-6.31a4.84,4.84,0,1,1,9-3.65,4.06,4.06,0,0,1,.19.59l2.11,6.27,12.46-4.16-2.1-6.28a4.84,4.84,0,0,1,9.17-3l2.1,6.31,6-2a4.84,4.84,0,0,1,2.94,9.17l-6,2,4,11.9,6.08-2a4.84,4.84,0,1,1,3.64,9,4.1,4.1,0,0,1-.59.2Z"/>
        </g>
    </g>
</svg>
