<svg xmlns="http://www.w3.org/2000/svg"
     viewBox="0 0 128 128"
     width="32"
     height="32">

    <style type="text/css">
        .document { fill:#333; }
    </style>

    <g class="document">
        <g class="icon-color">
            <path d="M111.65,22.35H16.39A15.86,15.86,0,0,0,.52,38.22v51.6a15.86,15.86,0,0,0,15.87,15.87h95.26a15.86,15.86,0,0,0,15.87-15.87V38.22A15.86,15.86,0,0,0,111.65,22.35ZM8.45,43.18,36.24,64,8.45,84.86ZM119.59,89.82a8,8,0,0,1-7.94,7.94H16.39a8,8,0,0,1-7.94-7.94L39.69,66.48l17.19,12.9a11.9,11.9,0,0,0,14.28,0l17.31-13L119.59,89.7Zm0-5L91.8,64l27.79-20.84ZM68.78,76.32a7.92,7.92,0,0,1-9.52,0L42.83,64l-3.14-2.5L8.45,38.22h0a8,8,0,0,1,7.94-7.94h95.26a8,8,0,0,1,7.94,7.94Z"/>
        </g>
    </g>
</svg>
