<svg xmlns="http://www.w3.org/2000/svg"
     viewBox="0 0 128 128"
     width="32"
     height="32">

    <style type="text/css">
        .document { fill:#333; }
    </style>

    <g class="document">
        <g class="icon-color">
            <path d="M81.19,68.37A8.7,8.7,0,0,0,76.45,67,9,9,0,0,0,70,69.6q-2.7,2.57-2.7,8.58a10.67,10.67,0,0,0,2.59,7.58,9,9,0,0,0,13,0q2.58-2.79,2.58-7.93a13.62,13.62,0,0,0-1.1-5.67A8.49,8.49,0,0,0,81.19,68.37Z"/>
            <path d="M115.16,49.07H81.06V36.27L55.47,6.41H8.55A8.55,8.55,0,0,0,0,15V113a8.53,8.53,0,0,0,8.52,8.56h64a8.52,8.52,0,0,0,8.52-8.49v-8.57h34.1A12.81,12.81,0,0,0,128,91.74V61.86A12.78,12.78,0,0,0,115.16,49.07Zm-26,28.75a15.66,15.66,0,0,1-1.64,7.24,11.12,11.12,0,0,1-4.63,4.84,13.15,13.15,0,0,1-6.46,1.64,12.58,12.58,0,0,1-6.72-1.81,11.62,11.62,0,0,1-4.48-5,15,15,0,0,1-1.53-6.64q0-6.63,3.56-10.38A12.09,12.09,0,0,1,76.43,64a12.78,12.78,0,0,1,6.64,1.76,11.46,11.46,0,0,1,4.51,4.91A15.89,15.89,0,0,1,89.14,77.82ZM60.56,88v3.14H43.93V64.47h3.52V88Zm45.83,3.59a15.21,15.21,0,0,1-7.13-1.67A11.09,11.09,0,0,1,94.42,85a15.3,15.3,0,0,1-1.63-7.1,16.43,16.43,0,0,1,1.63-7.26,10.72,10.72,0,0,1,4.67-5,14.61,14.61,0,0,1,7-1.63,14,14,0,0,1,5.23.93A8.73,8.73,0,0,1,115,67.56a11.46,11.46,0,0,1,2,4.36l-3.18.87a9.74,9.74,0,0,0-1.49-3.2,6.16,6.16,0,0,0-2.54-1.86,9.41,9.41,0,0,0-3.67-.7,10.75,10.75,0,0,0-4.17.74,7.76,7.76,0,0,0-2.85,1.93,9.29,9.29,0,0,0-1.67,2.63,13.94,13.94,0,0,0-1,5.36,12.86,12.86,0,0,0,1.23,6,7.87,7.87,0,0,0,3.56,3.56,11.11,11.11,0,0,0,5,1.16,11.93,11.93,0,0,0,4.46-.88A11.66,11.66,0,0,0,114,85.61v-5h-7.83V77.53l11.28,0v9.88a20,20,0,0,1-5.36,3.11A15.8,15.8,0,0,1,106.39,91.54ZM76.8,113.09a4.26,4.26,0,0,1-4.27,4.24h-64a4.28,4.28,0,0,1-4.27-4.25V14.92a4.29,4.29,0,0,1,4.25-4.25H51.2V32a8.52,8.52,0,0,0,8.52,8.56H76.8v8.53H42.7A12.8,12.8,0,0,0,29.87,61.86V91.74A12.78,12.78,0,0,0,42.7,104.53H76.8Z"/>
        </g>
    </g>
</svg>
