<svg xmlns="http://www.w3.org/2000/svg" viewBox="0 0 32 32.14">
    <style type="text/css">
        .notiz { fill: #FF8700; }
    </style>

    <g class="mail icon-color">
        <path d="M28,11.14H4a4,4,0,0,0-4,4v13a4,4,0,0,0,4,4H28a4,4,0,0,0,4-4v-13A4,4,0,0,0,28,11.14ZM2,16.39l7,5.25L2,26.89ZM30,28.14a2,2,0,0,1-2,2H4a2,2,0,0,1-2-2l7.83-5.87,4.37,3.28a3,3,0,0,0,3.6,0l4.37-3.28L30,28.14Zm0-1.25-7-5.25,7-5.25ZM17.2,24.75a2,2,0,0,1-2.4,0l-4.13-3.1L9.83,21,2,15.15H2a2,2,0,0,1,2-2H28a2,2,0,0,1,2,2Z"/>
    </g>

    <g class="notiz">
        <path d="M31.66,2.73a.76.76,0,0,0,.21-1.06.75.75,0,0,0-1-.29s0,0,0,0C29.74.15,27.9-.77,25.15.91c-3.21,1.93-4,1.35-5.6.83l6.58,10.83c.26-1.62.12-2.63,3.32-4.58,2.75-1.68,2.78-3.73,2.15-5.24Z"/>
        <path d="M21.06,8.25a1.71,1.71,0,0,0,2.1.72L21.38,6.06A1.69,1.69,0,0,0,21.06,8.25Z"/>
    </g>
</svg>
