<svg xmlns="http://www.w3.org/2000/svg" viewBox="0 0 32.49 32.03">
    <style type="text/css">
        .document { fill:#333; }
        .log { fill:#fff; }
        .notiz { fill:#ff8600; }
    </style>

    <g class="document icon-color">
        <path d="M20.43,13.75V10.53h0L14,3H2.15A2.16,2.16,0,0,0,0,5.16V29.87A2.15,2.15,0,0,0,2.15,32H18.28a2.15,2.15,0,0,0,2.15-2.14V27.73H29a3.23,3.23,0,0,0,3.23-3.22V17A3.22,3.22,0,0,0,29,13.75Zm-1.08,14v2.16A1.07,1.07,0,0,1,18.28,31H2.15a1.08,1.08,0,0,1-1.08-1.07V5.15A1.08,1.08,0,0,1,2.15,4.08H12.9V9.44A2.14,2.14,0,0,0,15,11.6h4.3v2.15H10.76A3.23,3.23,0,0,0,7.53,17V24.5a3.22,3.22,0,0,0,3.23,3.22ZM14,4.61V9.44A1.08,1.08,0,0,0,15,10.53h4L14,4.61ZM10.75,14.83A2.15,2.15,0,0,0,8.6,17v7.54a2.15,2.15,0,0,0,2.14,2.14H29a2.15,2.15,0,0,0,2.14-2.14V17A2.15,2.15,0,0,0,29,14.83Z"/>
    </g>

    <g class="log">
        <path d="M11.07,24.34V17.63H12v5.92h3.3v.79Z"/>
        <path d="M16,21.07a3.65,3.65,0,0,1,.9-2.62,3,3,0,0,1,2.32-.94,3.21,3.21,0,0,1,1.67.44,2.89,2.89,0,0,1,1.14,1.24,4,4,0,0,1,.39,1.8A4,4,0,0,1,22,22.82,2.81,2.81,0,0,1,20.88,24a3.33,3.33,0,0,1-1.63.41A3.17,3.17,0,0,1,17.56,24a2.94,2.94,0,0,1-1.13-1.25A3.79,3.79,0,0,1,16,21.07Zm.92,0A2.69,2.69,0,0,0,17.61,23a2.27,2.27,0,0,0,3.29,0,2.85,2.85,0,0,0,.65-2,3.46,3.46,0,0,0-.28-1.43,2.14,2.14,0,0,0-.81-.95,2.19,2.19,0,0,0-1.2-.34,2.27,2.27,0,0,0-1.62.65A2.9,2.9,0,0,0,17,21.09Z"/>
        <path d="M26.74,21.71v-.79h2.84v2.49a5,5,0,0,1-1.35.78,4,4,0,0,1-1.43.26A3.81,3.81,0,0,1,25,24a2.8,2.8,0,0,1-1.22-1.22A3.85,3.85,0,0,1,23.38,21a4.13,4.13,0,0,1,.41-1.83A2.71,2.71,0,0,1,25,17.93a3.69,3.69,0,0,1,1.77-.41,3.52,3.52,0,0,1,1.32.24,2.19,2.19,0,0,1,.92.66,2.91,2.91,0,0,1,.51,1.1l-.8.22a2.48,2.48,0,0,0-.38-.81,1.54,1.54,0,0,0-.64-.47,2.35,2.35,0,0,0-.92-.18,2.72,2.72,0,0,0-1.05.19A2,2,0,0,0,25,19a2.32,2.32,0,0,0-.42.66A3.51,3.51,0,0,0,24.3,21a3.26,3.26,0,0,0,.31,1.5,2,2,0,0,0,.9.9,2.78,2.78,0,0,0,1.25.29,3,3,0,0,0,1.13-.22,2.91,2.91,0,0,0,.83-.47V21.71Z"/>
    </g>

    <g class="notiz">
        <path d="M32.15,2.73a.76.76,0,0,0,.21-1.06.75.75,0,0,0-1-.29s0,0,0,0C30.23.15,28.39-.77,25.64.91c-3.21,1.93-4,1.35-5.6.83l6.58,10.83c.26-1.62.12-2.63,3.32-4.58,2.75-1.68,2.78-3.73,2.15-5.24Z"/>
        <path d="M21.54,8.25a1.71,1.71,0,0,0,2.1.72L21.87,6.06A1.69,1.69,0,0,0,21.54,8.25Z"/>
    </g>
</svg>
