<svg xmlns="http://www.w3.org/2000/svg" viewBox="0 0 32.25 32.25">
    <style type="text/css">
        .document { fill:#333; }
    </style>

    <g class="document">
        <rect x="14.47"
              y="14.55"
              width="3.31"
              height="3.19"
              transform="translate(-4.29 5.96) rotate(-18.52)"/>
        <rect x="14.47"
              y="14.55"
              width="3.31"
              height="3.19"
              transform="translate(-4.29 5.96) rotate(-18.52)"/>
        <path d="M26.9,12.89c-2.43-8.08-5.92-10-14-7.53s-10,5.92-7.53,14,5.92,10,14,7.54S29.32,21,26.9,12.89Zm-4.08,5.25-1.52.51.52,1.57a1.23,1.23,0,0,1-.77,1.55,1.15,1.15,0,0,1-.41.05A1.26,1.26,0,0,1,19.51,21L19,19.42l-3.14,1,.53,1.58a1.22,1.22,0,0,1-.77,1.54,1,1,0,0,1-.41.05,1.24,1.24,0,0,1-1.13-.82l-.53-1.58L12,21.75a1.15,1.15,0,0,1-.41.05A1.26,1.26,0,0,1,10.47,21a1.23,1.23,0,0,1,.77-1.55l1.52-.5-1-3-1.52.51a1.24,1.24,0,0,1-1.55-.77,1.23,1.23,0,0,1,.77-1.54L11,13.59,10.45,12a1.22,1.22,0,1,1,2.31-.77l.53,1.58,3.14-1.05-.53-1.58a1.22,1.22,0,0,1,2.31-.77L18.74,11l1.52-.51A1.22,1.22,0,0,1,21,12.8l-1.52.51,1,3,1.53-.5a1.22,1.22,0,1,1,.77,2.31Z"/>
    </g>
</svg>