<?xml version="1.0" encoding="utf-8"?>
<svg xmlns="http://www.w3.org/2000/svg"
     viewBox="0 0 128 128"
     width="24"
     height="24">

    <style type="text/css">
        #bell { fill: #f5f5f5; }
    </style>

    <g transform="scale(0.45) translate(70,70)">
        <g id="bell">
            <path class="icon-color" d="M123.9,27.8c3.6-2.1,4.5-7,2.1-10.8s-7-5.1-10.4-3c-0.2,0.1-0.4,0.1-0.5,0.4C104.4,1.6,85.6-7.8,57.7,9.3
		C24.9,29,16.5,23.1,0.7,17.7l67,110.2c2.6-16.5,1.2-26.8,33.8-46.6c28-17.1,28.3-37.9,21.9-53.3C123.6,27.9,123.8,27.9,123.9,27.8z
		"/>
            <path class="icon-color" d="M15.9,84c4.7,7.7,14.2,10.5,21.3,7.3l-18-29.6C13.1,66.6,11.2,76.4,15.9,84z"/>
        </g>
    </g>
</svg>
