<?xml version="1.0" encoding="utf-8"?>
<svg xmlns="http://www.w3.org/2000/svg"
     viewBox="0 0 64 64">

    <style type="text/css">
        #background { fill: #FF8700; }
        #bell, #cog { fill: white; }
    </style>

    <path id="background" d="M0,0H64V64H0Z"/>
    <path id="cog" d="M27.41,50a5.87,5.87,0,0,1,1-7.42L25.64,38a9.35,9.35,0,0,1-5.51-8.53c0-.16,0-.31,0-.46l0,0h0a9.37,9.37,0,0,1,18.32-2.26c.35-.2.68-.38,1-.6A23.54,23.54,0,0,1,44.05,24c-.15-.41-.31-.81-.49-1.2l3.34-6a.77.77,0,0,0-.13-.93l-3.59-3.59a.77.77,0,0,0-.93-.13l-6,3.34c-.5-.23-1-.44-1.54-.63l-1.9-6.63A.76.76,0,0,0,32,7.63H27a.77.77,0,0,0-.75.56l-1.9,6.64a13.75,13.75,0,0,0-1.54.62l-6-3.34a.77.77,0,0,0-.93.13l-3.59,3.59a.77.77,0,0,0-.13.93l3.34,6c-.23.5-.44,1-.62,1.54l-6.64,1.9a.77.77,0,0,0-.56.75V32a.77.77,0,0,0,.56.75l6.63,1.9a16,16,0,0,0,.63,1.54l-3.34,6a.77.77,0,0,0,.13.93l3.59,3.59a.77.77,0,0,0,.93.13l6-3.34c.5.24,1,.44,1.54.63l1.9,6.63a.78.78,0,0,0,.75.57h1.66A6.17,6.17,0,0,1,27.41,50Z"/>

    <g id="bell">
        <path d="M55.52,35A1.72,1.72,0,0,0,53.75,32s-.08,0-.1.08c-2.28-2.72-6.28-4.72-12.21-1.08-7,4.19-8.77,2.94-12.13,1.79L43.56,56.25c.56-3.51.26-5.7,7.19-9.91,6-3.64,6-8.07,4.66-11.34C55.45,35,55.5,35,55.52,35Z"/>
        <path d="M32.54,46.91a3.68,3.68,0,0,0,4.53,1.55l-3.82-6.29A3.68,3.68,0,0,0,32.54,46.91Z"/>
    </g>
</svg>
