<?xml version="1.0" encoding="utf-8"?>
<svg xmlns="http://www.w3.org/2000/svg"
     viewBox="0 0 128 128"
     width="32"
     height="32">

    <style type="text/css">
        #background { fill: #3B7EB0; }
        #bell { fill: white; }
        #typo3 { fill: #3B7EB0; }
    </style>
    <rect id="background" width="128" height="128" />

    <g transform="scale(0.7) translate(25,30)">
        <g id="bell">
            <path class="icon-color" d="M123.9,27.8c3.6-2.1,4.5-7,2.1-10.8s-7-5.1-10.4-3c-0.2,0.1-0.4,0.1-0.5,0.4C104.4,1.6,85.6-7.8,57.7,9.3
            C24.9,29,16.5,23.1,0.7,17.7l67,110.2c2.6-16.5,1.2-26.8,33.8-46.6c28-17.1,28.3-37.9,21.9-53.3C123.6,27.9,123.8,27.9,123.9,27.8z
            "/>
            <path class="icon-color" d="M15.9,84c4.7,7.7,14.2,10.5,21.3,7.3l-18-29.6C13.1,66.6,11.2,76.4,15.9,84z"/>
        </g>

        <g id="typo3">
            <path d="M89.8,66.5c-1,0.4-1.7,0.5-2.8,0.5c-8.5,0-21.1-28.3-21.1-38.2c0-3.6,0.8-4.8,2.2-5.9
            c-10.5,1.2-23.9,5.1-27.9,9.9c-0.8,1.2-1.4,3.1-1.4,5.6c-0.1,15.5,16.4,50.7,28.2,50.7C72.3,89.1,82.3,78.6,89.8,66.5"/>
            <path d="M82.3,21.3c11.1,0,22.2,1.8,22.2,8.1c0,12.7-8.1,28.2-12.2,28.2C84.9,57.6,76,37.2,76,26.9
            C75.9,22.2,77.7,21.3,82.3,21.3"/>
        </g>
    </g>

</svg>
