<?xml version="1.0" encoding="utf-8"?>
		<!-- Generator: Adobe Illustrator 15.1.0, SVG Export Plug-In . SVG Version: 6.00 Build 0)  -->
		<!DOCTYPE svg PUBLIC "-//W3C//DTD SVG 1.1//EN" "http://www.w3.org/Graphics/SVG/1.1/DTD/svg11.dtd">
<svg version="1.1" id="Ebene_1" xmlns="http://www.w3.org/2000/svg" xmlns:xlink="http://www.w3.org/1999/xlink" x="0px" y="0px"
	 width="16" height="16" viewBox="0 0 100 100" enable-background="new 0 0 400 168" xml:space="preserve">
	<g transform="translate(-35, -35)">
		<path fill="#FF8700" d="M106.074,100.128c-1.247,0.368-2.242,0.506-3.547,0.506c-10.691,0-26.389-37.359-26.389-49.793
	c0-4.577,1.083-6.104,2.613-7.415c-13.084,1.527-28.784,6.329-33.804,12.433c-1.085,1.529-1.745,3.926-1.745,6.98
	c0,19.41,20.718,63.455,35.332,63.455C85.297,126.295,96.696,115.181,106.074,100.128"/>
		<path fill="#FF8700" d="M99.25,42.122c13.52,0,27.049,2.18,27.049,9.812c0,15.483-9.819,34.246-14.832,34.246
	c-8.942,0-20.065-24.867-20.065-37.301C91.403,43.209,93.583,42.122,99.25,42.122"/>
	</g>
</svg>
